<?xml version="1.0" standalone="no"?>
<!DOCTYPE svg PUBLIC "-//W3C//DTD SVG 20010904//EN"
 "http://www.w3.org/TR/2001/REC-SVG-20010904/DTD/svg10.dtd">
<svg version="1.0" xmlns="http://www.w3.org/2000/svg"
 width="1080.000000pt" height="1080.000000pt" viewBox="0 0 1080.000000 1080.000000"
 preserveAspectRatio="xMidYMid meet">

<g transform="translate(0.000000,1080.000000) scale(0.100000,-0.100000)"
fill="#000000" stroke="none">
<path d="M5140 8020 c-238 -24 -449 -208 -510 -445 -15 -60 -20 -111 -20 -222
l0 -143 70 0 70 0 0 144 c0 115 4 157 20 208 44 144 170 267 313 306 l37 10
-54 -59 c-59 -66 -107 -155 -130 -241 -11 -43 -16 -153 -22 -430 -6 -333 -5
-377 9 -404 29 -56 103 -52 127 7 9 20 11 130 8 391 -3 359 -3 364 20 431 41
116 143 229 247 273 45 19 71 11 156 -48 139 -96 198 -241 199 -490 l0 -98 65
0 65 0 0 143 c0 221 -40 346 -151 470 l-49 55 37 -10 c107 -29 227 -127 277
-226 53 -104 56 -136 56 -533 l0 -368 26 -20 c34 -27 54 -26 88 0 l27 22 -3
396 c-4 346 -6 403 -22 451 -66 204 -222 358 -418 415 -42 12 -89 16 -165 14
-121 -3 -258 -1 -288 4 -11 2 -49 1 -85 -3z"/>
<path d="M3989 4709 c-57 -9 -99 -30 -151 -77 -112 -101 -117 -269 -12 -378
63 -64 121 -89 214 -89 74 0 170 26 170 46 0 4 -10 29 -22 54 -16 33 -26 44
-38 39 -136 -59 -270 9 -270 136 0 40 32 103 63 123 57 37 111 40 202 12 17
-5 24 2 43 40 12 26 20 50 17 55 -8 13 -85 38 -130 42 -22 3 -61 1 -86 -3z"/>
<path d="M4459 4709 c-57 -9 -79 -20 -131 -67 -54 -49 -80 -104 -86 -183 -6
-93 17 -159 78 -220 109 -109 280 -103 384 11 53 59 69 103 70 185 0 116 -52
204 -147 249 -61 29 -105 35 -168 25z m110 -127 c92 -46 100 -214 15 -281 -35
-27 -107 -28 -150 -2 -88 54 -85 218 5 278 41 27 84 29 130 5z"/>
<path d="M7121 4709 c-148 -28 -254 -161 -238 -300 20 -170 207 -286 378 -235
86 25 87 27 59 85 -13 28 -24 51 -25 51 -2 0 -19 -7 -38 -15 -174 -73 -329
133 -192 254 59 52 129 60 218 25 23 -9 66 78 49 99 -24 28 -142 48 -211 36z"/>
<path d="M3110 4440 l0 -270 156 0 155 0 -3 53 -3 52 -92 3 -93 3 0 54 0 55
90 0 90 0 0 50 0 50 -90 0 -90 0 0 55 0 55 96 0 95 0 -3 53 -3 52 -152 3 -153
3 0 -271z"/>
<path d="M4850 4695 c0 -22 -39 -452 -44 -492 l-5 -33 63 0 64 0 7 123 c12
214 12 214 75 36 l55 -154 35 0 35 0 55 155 c63 178 62 178 75 -42 l8 -118 63
0 63 0 -5 33 c-5 40 -44 470 -44 492 0 12 -13 15 -64 15 l-64 0 -50 -127 c-27
-71 -52 -138 -56 -150 -4 -13 -11 -23 -16 -23 -5 0 -12 10 -16 23 -4 12 -29
79 -56 150 l-50 127 -64 0 c-51 0 -64 -3 -64 -15z"/>
<path d="M5466 4688 c-3 -13 -12 -108 -21 -213 -8 -104 -18 -216 -22 -247 l-6
-58 60 0 60 0 6 53 c3 28 9 98 13 155 4 57 10 99 14 95 5 -4 28 -66 53 -138
25 -71 48 -138 52 -147 5 -12 18 -18 40 -18 22 0 35 6 40 18 4 9 27 76 52 147
25 72 48 134 53 138 4 4 10 -38 14 -95 4 -57 10 -127 13 -155 l6 -53 60 0 60
0 -6 53 c-3 28 -13 140 -22 247 -22 263 -13 240 -85 240 -70 0 -62 11 -135
-183 -26 -70 -49 -126 -51 -124 -2 1 -26 63 -54 137 -71 183 -60 170 -130 170
-54 0 -60 -2 -64 -22z"/>
<path d="M6067 4704 c-4 -4 -7 -126 -7 -271 l0 -263 155 0 155 0 0 55 0 55
-96 0 -95 0 3 53 3 52 88 3 87 3 0 49 0 50 -90 0 -90 0 0 55 0 55 96 0 95 0
-3 53 -3 52 -146 3 c-80 1 -148 -1 -152 -4z"/>
<path d="M6440 4441 l0 -271 60 0 59 0 3 104 3 104 80 -104 80 -104 78 0 78 0
-91 108 c-49 59 -90 110 -90 115 0 4 6 7 13 7 7 0 28 16 47 35 31 32 35 42 38
103 6 128 -43 163 -235 170 l-123 4 0 -271z m215 144 c28 -27 31 -45 14 -78
-16 -31 -28 -37 -71 -37 l-38 0 0 70 0 70 35 0 c25 0 44 -8 60 -25z"/>
<path d="M7397 4703 c-4 -3 -7 -125 -7 -270 l0 -263 155 0 155 0 0 55 0 55
-90 0 -90 0 0 55 0 55 85 0 85 0 0 50 0 50 -85 0 -85 0 0 55 0 55 90 0 90 0 0
55 0 55 -148 0 c-82 0 -152 -3 -155 -7z"/>
<path d="M3487 4403 c-4 -3 -7 -26 -7 -50 l0 -43 105 0 105 0 0 50 0 50 -98 0
c-54 0 -102 -3 -105 -7z"/>
<path d="M4485 4060 c-99 -22 -153 -98 -134 -188 9 -46 43 -78 119 -117 85
-43 107 -67 92 -100 -18 -39 -69 -43 -139 -9 -32 15 -60 29 -63 31 -3 2 -17
-19 -33 -46 l-27 -49 27 -19 c79 -55 213 -66 290 -25 78 41 107 144 60 213
-15 22 -52 49 -111 80 -97 51 -113 68 -96 99 15 27 77 30 136 5 31 -13 31 -13
53 32 12 24 19 48 16 53 -16 25 -140 51 -190 40z"/>
<path d="M5343 4059 c-183 -33 -278 -241 -187 -409 36 -66 85 -107 153 -127
169 -49 333 62 348 237 17 185 -137 331 -314 299z m115 -129 c86 -53 95 -200
16 -269 -29 -26 -43 -31 -86 -31 -45 0 -54 4 -88 38 -41 41 -58 102 -46 159
23 102 123 152 204 103z"/>
<path d="M4727 4053 c-4 -3 -7 -28 -7 -55 l0 -48 65 0 65 0 0 -215 0 -215 60
0 60 0 0 215 0 215 65 0 65 0 0 55 0 55 -183 0 c-101 0 -187 -3 -190 -7z"/>
<path d="M5718 4054 c-5 -4 -8 -126 -8 -271 l0 -263 65 0 64 0 3 101 3 101 78
-101 77 -101 76 0 c71 0 76 1 63 18 -8 9 -46 56 -86 104 -40 47 -73 90 -73 95
1 4 15 17 32 28 47 30 70 80 65 143 -4 60 -27 97 -77 126 -25 15 -58 20 -154
24 -66 2 -124 1 -128 -4z m219 -120 c7 -10 13 -32 13 -50 0 -40 -30 -64 -77
-64 l-33 0 0 71 0 72 42 -6 c23 -3 48 -14 55 -23z"/>
<path d="M6187 4054 c-4 -4 -7 -126 -7 -271 l0 -263 155 0 155 0 0 55 0 55
-96 0 -95 0 3 53 3 52 88 3 87 3 0 49 0 50 -90 0 -90 0 0 55 0 55 96 0 95 0
-3 53 -3 52 -146 3 c-80 1 -148 -1 -152 -4z"/>
</g>
</svg>
